<?xml version="1.0" encoding="utf-8"?><svg xmlns="http://www.w3.org/2000/svg" xmlns:xlink="http://www.w3.org/1999/xlink" width="1920" height="969" preserveAspectRatio="xMidYMid" viewBox="0 0 1920 969" style="z-index:1;margin-right:-2px;display:block;background-repeat-y:initial;background-repeat-x:initial;animation-play-state:paused" ><g transform="translate(960,484.5) scale(1,1) translate(-960,-484.5)" style="transform:matrix(1, 0, 0, 1, 0, 0);animation-play-state:paused" ><defs style="animation-play-state:paused" ><path id="path-ew94qnmqogi-1" d="M-35 -35L35 -35L35 35L-35 35Z" fill="none" stroke="inherit" stroke-width="4.333333333333334" transform="scale(0.3)" style="transform:matrix(0.3, 0, 0, 0.3, 0, 0);animation-play-state:paused" ></path>

  
<path id="path-ew94qnmqogi-2" d="M0 -37A37 37 0 0 1 0 37A37 37 0 0 1 0 -37" fill="none" stroke="inherit" stroke-width="4.333333333333334" transform="scale(0.3)" style="transform:matrix(0.3, 0, 0, 0.3, 0, 0);animation-play-state:paused" ></path>

  
<path id="path-ew94qnmqogi-3" d="M0 -34.641L40 34.641L-40 34.641Z" fill="none" stroke="inherit" stroke-width="4.333333333333334" transform="scale(0.3)" style="transform:matrix(0.3, 0, 0, 0.3, 0, 0);animation-play-state:paused" ></path></defs>
<path id="path0" d="M 81.24146462331888 416.1011437870014
c 0 55.90364400927043 -13.678551193757658 16.05742966223725 -29.73598085599491 16.05742966223725
S 21.769502911329056 472.0047877962718 21.769502911329056 416.1011437870014
s 13.678551193757658 -16.05742966223725 29.73598085599491 -16.05742966223725
S 81.24146462331888 360.19749977773097 81.24146462331888 416.1011437870014
z" fill="none" stroke="none" style="animation-play-state:paused" ></path>


<use xlink:href="#path-ew94qnmqogi-3" x="0" y="0" stroke="#16a085" transform="translate(80.06925201416016 437.2342834472656)" style="animation-play-state:paused" ></use>
<path id="path1" d="M 160.66980969344885 731.8865935368476
c 0 48.26798957669933 -11.810252768766855 13.864209772030659 -25.674462540797514 13.864209772030659
S 109.32088461185381 780.1545831135469 109.32088461185381 731.8865935368476
s 11.810252768766855 -13.864209772030659 25.674462540797514 -13.864209772030659
S 160.66980969344885 683.6186039601483 160.66980969344885 731.8865935368476
z" fill="none" stroke="none" style="animation-play-state:paused" ></path>


<use xlink:href="#path-ew94qnmqogi-2" x="0" y="0" stroke="#16a085" transform="translate(140.5160369873047 747.3667602539062)" style="animation-play-state:paused" ></use>
<path id="path2" d="M 245.68793627989444 231.64892914059553
c 0 24.376289592061426 -5.964411283163965 7.0017002019750905 -12.966111485139056 7.0017002019750905
S 219.7557133096163 256.025218732657 219.7557133096163 231.64892914059553
s 5.964411283163965 -7.0017002019750905 12.966111485139056 -7.0017002019750905
S 245.68793627989444 207.2726395485341 245.68793627989444 231.64892914059553
z" fill="none" stroke="none" style="animation-play-state:paused" ></path>


<use xlink:href="#path-ew94qnmqogi-1" x="0" y="0" stroke="#16a085" transform="translate(245.5564422607422 237.08778381347656)" style="animation-play-state:paused" ></use>
<path id="path3" d="M 391.5730853207974 733.2542869214576
c 0 33.16513348248364 -8.114873086139612 9.526155361989982 -17.641028448129596 9.526155361989982
S 356.29102842453824 766.4194204039412 356.29102842453824 733.2542869214576
s 8.114873086139612 -9.526155361989982 17.641028448129596 -9.526155361989982
S 391.5730853207974 700.089153438974 391.5730853207974 733.2542869214576
z" fill="none" stroke="none" style="animation-play-state:paused" ></path>


<use xlink:href="#path-ew94qnmqogi-2" x="0" y="0" stroke="#9b59b6" transform="translate(357.65338134765625 748.5831909179688)" style="animation-play-state:paused" ></use>
<path id="path4" d="M 548.9579458977216 654.1206094042311
c 0 65.7123287811561 -16.07854853155947 18.874817841395902 -34.95336637295537 18.874817841395902
S 479.05121315181094 719.8329381853872 479.05121315181094 654.1206094042311
s 16.07854853155947 -18.874817841395902 34.95336637295537 -18.874817841395902
S 548.9579458977216 588.408280623075 548.9579458977216 654.1206094042311
z" fill="none" stroke="none" style="animation-play-state:paused" ></path>


<use xlink:href="#path-ew94qnmqogi-1" x="0" y="0" stroke="#9b59b6" transform="translate(503.5553283691406 677.0336303710938)" style="animation-play-state:paused" ></use>
<path id="path5" d="M 593.4680095601086 917.1443144983605
c 0 32.194705840309624 -7.87742802475661 9.247415507322978 -17.124843532079588 9.247415507322978
S 559.2183224959495 949.3390203386701 559.2183224959495 917.1443144983605
s 7.87742802475661 -9.247415507322978 17.124843532079588 -9.247415507322978
S 593.4680095601086 884.9496086580508 593.4680095601086 917.1443144983605
z" fill="none" stroke="none" style="animation-play-state:paused" ></path>


<use xlink:href="#path-ew94qnmqogi-1" x="0" y="0" stroke="#16a085" transform="translate(583.5223999023438 929.971435546875)" style="animation-play-state:paused" ></use>
<path id="path6" d="M 712.9340621593657 47.21203968594837
c 0 35.94018100030773 -8.79387407454338 10.323243478811795 -19.117117553355175 10.323243478811795
S 674.6998270526552 83.1522206862561 674.6998270526552 47.21203968594837
s 8.79387407454338 -10.323243478811795 19.117117553355175 -10.323243478811795
S 712.9340621593657 11.271858685640638 712.9340621593657 47.21203968594837
z" fill="none" stroke="none" style="animation-play-state:paused" ></path>


<use xlink:href="#path-ew94qnmqogi-3" x="0" y="0" stroke="#9b59b6" transform="translate(711.9055786132812 62.22759246826172)" style="animation-play-state:paused" ></use>
<path id="path7" d="M 859.5727889482432 182.21862459235473
c 0 38.21373585392361 -9.350169411066414 10.976285830382315 -20.326455241448727 10.976285830382315
S 818.9198784653458 220.43236044627832 818.9198784653458 182.21862459235473
s 9.350169411066414 -10.976285830382315 20.326455241448727 -10.976285830382315
S 859.5727889482432 144.00488873843113 859.5727889482432 182.21862459235473
z" fill="none" stroke="none" style="animation-play-state:paused" ></path>


<use xlink:href="#path-ew94qnmqogi-1" x="0" y="0" stroke="#3498db" transform="translate(839.892333984375 193.22589111328125)" style="animation-play-state:paused" ></use>
<path id="path8" d="M 883.5633308055855 801.8683076190916
c 0 25.543375160660645 -6.249974773353136 7.336926907849334 -13.58690168120247 7.336926907849334
S 856.3895274431806 827.4116827797523 856.3895274431806 801.8683076190916
s 6.249974773353136 -7.336926907849334 13.58690168120247 -7.336926907849334
S 883.5633308055855 776.324932458431 883.5633308055855 801.8683076190916
z" fill="none" stroke="none" style="animation-play-state:paused" ></path>


<use xlink:href="#path-ew94qnmqogi-1" x="0" y="0" stroke="#9b59b6" transform="translate(882.2847900390625 814.2378540039062)" style="animation-play-state:paused" ></use>
<path id="path9" d="M 1018.7473743028125 780.3766189678196
c 0 52.80792869094639 -12.921088935018796 15.168234836761199 -28.089323771779995 15.168234836761199
S 962.5687267592526 833.184547658766 962.5687267592526 780.3766189678196
s 12.921088935018796 -15.168234836761199 28.089323771779995 -15.168234836761199
S 1018.7473743028125 727.5686902768732 1018.7473743028125 780.3766189678196
z" fill="none" stroke="none" style="animation-play-state:paused" ></path>


<use xlink:href="#path-ew94qnmqogi-2" x="0" y="0" stroke="#16a085" transform="translate(984.9965209960938 797.11083984375)" style="animation-play-state:paused" ></use>
<path id="path10" d="M 1108.3276722470941 402.61648328936553
c 0 60.95622399283659 -14.914820764204697 17.508702636240297 -32.42352340044499 17.508702636240297
S 1043.4806254462042 463.57270728220215 1043.4806254462042 402.61648328936553
s 14.914820764204697 -17.508702636240297 32.42352340044499 -17.508702636240297
S 1108.3276722470941 341.6602592965289 1108.3276722470941 402.61648328936553
z" fill="none" stroke="none" style="animation-play-state:paused" ></path>


<use xlink:href="#path-ew94qnmqogi-2" x="0" y="0" stroke="#3498db" transform="translate(1086.083251953125 424.216796875)" style="animation-play-state:paused" ></use>
<path id="path11" d="M 1271.3452749529952 355.316239097496
c 0 52.18977048138243 -12.769837458210594 14.9906787552907 -27.760516213501294 14.9906787552907
S 1215.8242425259928 407.50600957887843 1215.8242425259928 355.316239097496
s 12.769837458210594 -14.9906787552907 27.760516213501294 -14.9906787552907
S 1271.3452749529952 303.1264686161136 1271.3452749529952 355.316239097496
z" fill="none" stroke="none" style="animation-play-state:paused" ></path>


<use xlink:href="#path-ew94qnmqogi-3" x="0" y="0" stroke="#16a085" transform="translate(1271.3153076171875 359.4532165527344)" style="animation-play-state:paused" ></use>
<path id="path12" d="M 1362.5885674559993 640.2857336302851
c 0 34.85957203631636 -8.529469753566769 10.012855797665338 -18.542325551232107 10.012855797665338
S 1325.503916353535 675.1453056666014 1325.503916353535 640.2857336302851
s 8.529469753566769 -10.012855797665338 18.542325551232107 -10.012855797665338
S 1362.5885674559993 605.4261615939688 1362.5885674559993 640.2857336302851
z" fill="none" stroke="none" style="animation-play-state:paused" ></path>


<use xlink:href="#path-ew94qnmqogi-1" x="0" y="0" stroke="#16a085" transform="translate(1362.09765625 651.7227172851562)" style="animation-play-state:paused" ></use>
<path id="path13" d="M 1411.3176096227253 34.24401241403059
c 0 45.77927681969592 -11.201312413329852 13.14936674608287 -24.35067915941272 13.14936674608287
S 1362.6162513038998 80.02328923372652 1362.6162513038998 34.24401241403059
s 11.201312413329852 -13.14936674608287 24.35067915941272 -13.14936674608287
S 1411.3176096227253 -11.53526440566533 1411.3176096227253 34.24401241403059
z" fill="none" stroke="none" style="animation-play-state:paused" ></path>


<use xlink:href="#path-ew94qnmqogi-3" x="0" y="0" stroke="#3498db" transform="translate(1378.669677734375 50.94928741455078)" style="animation-play-state:paused" ></use>
<path id="path14" d="M 1534.2402531729579 644.6145013532503
c 0 33.621282559216894 -8.226484030446686 9.657176905306981 -17.883660935753667 9.657176905306981
S 1498.4729313014507 678.2357839124671 1498.4729313014507 644.6145013532503
s 8.226484030446686 -9.657176905306981 17.883660935753667 -9.657176905306981
S 1534.2402531729579 610.9932187940334 1534.2402531729579 644.6145013532503
z" fill="none" stroke="none" style="animation-play-state:paused" ></path>


<use xlink:href="#path-ew94qnmqogi-1" x="0" y="0" stroke="#9b59b6" transform="translate(1502.68115234375 662.4934692382812)" style="animation-play-state:paused" ></use>
<path id="path15" d="M 1678.1813928609579 214.04856338427717
c 0 53.00007454162514 -12.968103345291256 15.223425666211478 -28.191529011502734 15.223425666211478
S 1621.7983348379523 267.0486379259023 1621.7983348379523 214.04856338427717
s 12.968103345291256 -15.223425666211478 28.191529011502734 -15.223425666211478
S 1678.1813928609579 161.04848884265203 1678.1813928609579 214.04856338427717
z" fill="none" stroke="none" style="animation-play-state:paused" ></path>


<use xlink:href="#path-ew94qnmqogi-2" x="0" y="0" stroke="#3498db" transform="translate(1639.7132568359375 233.9072723388672)" style="animation-play-state:paused" ></use>
<path id="path16" d="M 1726.951316391161 843.9417965177513
c 0 60.824165923389 -14.882508683382415 17.470771063101097 -32.35327974648351 17.470771063101097
S 1662.2447568981943 904.7659624411403 1662.2447568981943 843.9417965177513
s 14.882508683382415 -17.470771063101097 32.35327974648351 -17.470771063101097
S 1726.951316391161 783.1176305943623 1726.951316391161 843.9417965177513
z" fill="none" stroke="none" style="animation-play-state:paused" ></path>


<use xlink:href="#path-ew94qnmqogi-3" x="0" y="0" stroke="#9b59b6" transform="translate(1683.083984375 866.513427734375)" style="animation-play-state:paused" ></use>
<path id="path17" d="M 1850.7152975928122 235.8480706236599
c 0 45.53485846535002 -11.141507922372877 13.0791614740899 -24.220669396462778 13.0791614740899
S 1802.2739587998865 281.3829290890099 1802.2739587998865 235.8480706236599
s 11.141507922372877 -13.0791614740899 24.220669396462778 -13.0791614740899
S 1850.7152975928122 190.31321215830988 1850.7152975928122 235.8480706236599
z" fill="none" stroke="none" style="animation-play-state:paused" ></path>


<use xlink:href="#path-ew94qnmqogi-2" x="0" y="0" stroke="#16a085" transform="translate(1834.555908203125 252.31996154785156)" style="animation-play-state:paused" ></use></g></svg>